<?xml version="1.0" standalone="no"?>
<!DOCTYPE svg PUBLIC "-//W3C//DTD SVG 20010904//EN"
 "http://www.w3.org/TR/2001/REC-SVG-20010904/DTD/svg10.dtd">
<svg version="1.0" xmlns="http://www.w3.org/2000/svg"
 width="2048.000000pt" height="2048.000000pt" viewBox="0 0 2048.000000 2048.000000"
 preserveAspectRatio="xMidYMid meet">
<metadata>
Created by potrace 1.11, written by Peter Selinger 2001-2013
</metadata>
<g transform="translate(0.000000,2048.000000) scale(0.100000,-0.100000)"
fill="#000000" stroke="none">
<path d="M11697 16446 c-75 -28 -149 -92 -181 -159 -21 -42 -52 -136 -81 -247
-2 -8 -45 -157 -95 -330 -50 -173 -125 -432 -166 -575 -41 -143 -79 -273 -84
-290 -8 -24 -60 -205 -85 -295 -3 -8 -18 -62 -35 -120 -17 -58 -33 -112 -35
-120 -2 -8 -24 -87 -50 -175 -116 -400 -157 -541 -161 -560 -2 -11 -8 -31 -13
-45 -8 -21 -28 -87 -37 -125 -1 -5 -28 -98 -59 -205 -31 -107 -92 -316 -135
-465 -134 -464 -329 -1139 -406 -1405 -41 -140 -76 -262 -78 -270 -4 -17 -198
-689 -253 -875 -19 -66 -48 -167 -64 -225 -17 -58 -34 -118 -40 -135 -5 -16
-20 -68 -34 -115 -13 -47 -31 -107 -39 -135 -9 -27 -15 -51 -15 -53 0 -1 -6
-26 -15 -55 -9 -28 -41 -137 -70 -242 -89 -310 -205 -713 -237 -820 -17 -55
-32 -107 -34 -115 -1 -8 -17 -64 -35 -125 -18 -60 -38 -130 -45 -155 -7 -25
-51 -180 -99 -345 -48 -165 -89 -307 -91 -315 -2 -8 -38 -130 -78 -270 -41
-140 -80 -275 -87 -300 -7 -25 -15 -52 -18 -60 -3 -8 -7 -22 -8 -30 -2 -8 -38
-132 -80 -275 -42 -143 -84 -289 -94 -325 -10 -36 -52 -182 -93 -325 -42 -143
-105 -363 -142 -490 -37 -126 -91 -313 -120 -415 -72 -247 -192 -665 -270
-935 -35 -121 -91 -315 -124 -430 -39 -134 -61 -231 -62 -267 -2 -85 26 -152
91 -218 63 -65 99 -81 300 -135 74 -20 169 -46 210 -57 243 -67 326 -86 363
-81 59 6 122 34 172 76 80 67 79 64 250 657 42 146 106 366 142 490 110 383
229 794 302 1050 107 369 191 661 202 695 5 17 25 84 44 150 18 66 46 161 60
210 15 50 33 113 40 140 8 28 37 129 65 225 28 96 53 182 55 190 5 18 192 668
305 1055 45 154 83 287 85 295 2 8 44 155 93 325 50 171 125 429 167 575 91
316 137 475 171 590 14 47 32 110 40 140 8 30 24 84 34 120 11 36 45 153 76
260 101 353 142 492 209 725 118 406 127 439 135 470 5 17 36 125 70 240 34
116 74 255 90 310 15 55 67 235 115 400 48 165 91 314 95 330 4 17 29 102 55
190 25 88 76 261 111 385 131 451 239 823 329 1135 59 205 292 1011 320 1110
13 44 57 197 98 340 41 143 79 276 83 295 30 135 -42 281 -171 343 -31 16
-114 44 -183 62 -70 19 -167 46 -217 60 -351 98 -376 102 -458 71z"/>
<path d="M6007 14580 c-20 -6 -55 -19 -78 -30 -26 -14 -876 -857 -2410 -2391
-2639 -2639 -2424 -2412 -2424 -2559 1 -148 -215 80 2422 -2557 2655 -2655
2422 -2435 2571 -2430 125 5 142 17 473 349 334 334 344 348 344 478 0 146
172 -37 -2034 2169 -1090 1090 -1981 1986 -1981 1991 0 5 891 901 1981 1991
2206 2206 2034 2022 2034 2169 0 131 -10 144 -345 480 -320 319 -343 337 -457
345 -32 2 -75 0 -96 -5z"/>
<path d="M14315 14576 c-22 -7 -55 -20 -73 -30 -18 -9 -162 -147 -321 -306
-249 -248 -294 -298 -320 -352 -25 -54 -29 -73 -27 -133 4 -143 -161 32 2040
-2169 l1986 -1986 -1986 -1986 c-2211 -2212 -2039 -2028 -2039 -2174 0 -131
10 -145 344 -478 336 -337 349 -346 476 -347 152 0 -79 -219 2567 2428 2638
2637 2423 2410 2423 2557 0 147 215 -80 -2425 2560 -2089 2089 -2379 2375
-2427 2397 -64 30 -157 37 -218 19z"/>
</g>
</svg>
